<svg width="18" height="40" viewBox="0 0 18 40" fill="none" xmlns="http://www.w3.org/2000/svg">
<path d="M7.88759 0.0631294C5.94366 0.471867 4.22898 1.90517 3.32149 3.87801C3.03013 4.50474 2.87252 4.97888 2.7149 5.70371L2.59072 6.27594L2.57161 12.5705C2.56206 18.113 2.56684 18.9359 2.6337 19.4591C3.03013 22.5382 5.12691 25.0179 7.84938 25.6337C8.42254 25.7591 9.5975 25.7591 10.1706 25.6337C12.5158 25.1051 14.4215 23.1922 15.1475 20.6362C15.458 19.5245 15.458 19.5735 15.458 12.8375C15.458 7.82369 15.4436 6.67378 15.3863 6.24869C15.1475 4.45024 14.3021 2.74445 13.1033 1.64358C12.32 0.918753 11.4793 0.439167 10.5241 0.166676C10.1086 0.0467796 9.90795 0.0195312 9.1533 0.00318146C8.51329 -0.00771904 8.16462 0.00863075 7.88759 0.0631294ZM9.89363 1.30024C11.8423 1.63268 13.5857 3.39843 14.1397 5.60016C14.3642 6.49393 14.3642 6.55933 14.3499 13.1427L14.3356 19.3555L14.2018 19.9005C14.0394 20.5599 13.7337 21.3175 13.409 21.8461C13.1319 22.3039 12.554 22.9797 12.1385 23.3339C11.7516 23.6664 10.9874 24.0914 10.4811 24.2549C8.02133 25.0561 5.39438 23.7372 4.23375 21.1213C4.0427 20.6962 3.85165 20.1076 3.85165 19.955C3.85165 19.8842 4.13345 19.8733 6.3162 19.8733H8.78076L8.94315 19.688C9.07688 19.5354 9.10554 19.4591 9.10554 19.2792C9.10554 19.1539 9.06733 18.9904 9.02435 18.9086C8.85718 18.6253 8.83329 18.6198 6.14426 18.6198H3.6606V17.5026V16.3854H6.22068H8.78076L8.94315 16.2001C9.08166 16.042 9.10554 15.9766 9.10554 15.7695C9.10554 15.5679 9.07688 15.4916 8.96703 15.3608C8.88583 15.2736 8.75687 15.1864 8.6709 15.1646C8.5897 15.1483 7.42907 15.1319 6.09172 15.1319H3.6606V14.0147V12.8975H6.19202C8.04999 12.8975 8.7521 12.8811 8.84285 12.8321C9.11032 12.6958 9.19151 12.1781 8.99569 11.9002C8.9336 11.8075 8.81419 11.7258 8.69956 11.6985C8.59448 11.6713 7.41952 11.644 6.08694 11.644H3.6606V10.5268V9.41504L6.1968 9.40959C8.94315 9.40959 8.92882 9.40959 9.04823 9.10985C9.17719 8.78286 9.08644 8.41772 8.83329 8.27058C8.76165 8.23243 7.94969 8.21063 6.18724 8.20518H3.64627L3.67493 7.26781C3.70359 6.28139 3.76568 5.89445 4.01404 5.13692C4.67317 3.15318 6.34009 1.59998 8.15029 1.29479C8.79508 1.18579 9.2345 1.18579 9.89363 1.30024Z" fill="white"/>
<path d="M0.418164 16.9467C0.136364 17.0612 0.0647203 17.2301 0.0217339 17.9222C-0.0690151 19.3337 0.131588 21.4646 0.489808 22.9524C0.943553 24.8326 1.67432 26.3313 2.72988 27.5357C4.0529 29.0508 5.72937 29.8955 7.90734 30.1408L8.46139 30.2007V34.4788V38.7569L5.87266 38.7733L3.28392 38.7842L3.14063 38.9531C3.01645 39.0948 2.99257 39.1602 2.99257 39.3837C2.99257 39.6071 3.01645 39.6725 3.14063 39.8142L3.28392 39.9832L8.8817 39.9941C11.9624 40.005 14.5416 39.9995 14.6132 39.9886C14.8281 39.9559 15.0288 39.6889 15.0288 39.4327C15.0288 39.1657 14.9332 38.9368 14.7804 38.8496C14.6992 38.8005 14.021 38.7787 12.1152 38.7678L9.55993 38.7569L9.5456 34.5878C9.54083 32.2934 9.5456 30.3697 9.55993 30.3043C9.57904 30.2007 9.6268 30.1844 10.0137 30.1517C11.1839 30.0536 12.4257 29.6721 13.4192 29.1053C14.809 28.3151 16.0509 26.8654 16.7912 25.1651C17.6032 23.3067 17.9996 21.1921 17.9996 18.6743C18.0044 17.3827 17.9709 17.1865 17.7226 17.0012C17.4885 16.8268 17.0634 16.9304 16.9584 17.192C16.9393 17.241 16.9202 17.8459 16.9154 18.5381C16.9106 19.2247 16.8819 20.0477 16.8485 20.3638C16.2754 25.9389 13.5195 28.9472 8.98678 28.9418C6.84701 28.9363 5.15144 28.2769 3.78065 26.9145C3.5705 26.7074 3.36512 26.4894 3.32691 26.4294C3.2887 26.3749 3.16452 26.206 3.05944 26.0588C2.08508 24.7127 1.41163 22.6854 1.17281 20.3638C1.13938 20.0477 1.11072 19.2247 1.10595 18.5381C1.10117 17.8459 1.08206 17.241 1.06296 17.192C0.976987 16.974 0.661753 16.8541 0.418164 16.9467Z" fill="white"/>
</svg>
